<svg width="49" height="50" viewBox="0 0 49 50" fill="none" xmlns="http://www.w3.org/2000/svg">
<path fill-rule="evenodd" clip-rule="evenodd" d="M11.4123 6.0903L12.3211 6.23541L13.2568 6.49948L31.911 13.2811L32.7274 13.6142L33.511 14.037L34.2561 14.5404L34.9565 15.1151L35.6061 15.7527L36.1986 16.4444L36.7276 17.182L37.1863 17.9573L37.5677 18.762L37.8647 19.5882L38.0698 20.4276L38.1749 21.2721L38.5072 39.6914L38.5072 39.6919L38.3953 40.5867L38.1749 41.4145L37.8518 42.1678L37.4316 42.8391L36.9203 43.4205L36.3239 43.9035L35.6488 44.2798L34.9017 44.5404L34.0895 44.6767L33.2199 44.6795L32.3004 44.5403L11.6898 40.1454L10.6828 39.9126L9.62345 39.4586L8.61081 38.8011L7.70439 38.1173L6.87659 37.3367L6.13828 36.4724L5.49995 35.538L4.97169 34.5472L4.56314 33.5141L4.28341 32.4527L4.14093 31.3766L4.1437 30.3L5.78052 10.467L5.9119 9.60369L6.16744 8.82471L6.53621 8.13445L7.00739 7.53688L7.57039 7.03566L8.21485 6.63424L8.93075 6.33587L9.70843 6.14369L10.5386 6.06079L11.4123 6.0903ZM38.5072 39.6914L38.1749 21.2721L38.505 38.7369L38.5072 39.6914Z" fill="url(#paint0_linear_1_715)" fill-opacity="0.5"/>
<path fill-rule="evenodd" clip-rule="evenodd" d="M9.89016 4.392L9.75878 5.25536L8.20557 26.6485L8.2028 27.7251L8.34525 28.8011L8.62501 29.8626L9.03356 30.8957L9.56182 31.8864L10.2001 32.8208L10.9385 33.6851L11.7663 34.4658L12.6727 35.1495L13.6466 35.7235L14.6766 36.1755L15.7512 36.4937L37.7933 41.4862L38.7127 41.6254L39.5824 41.6226L40.3945 41.4863L41.1416 41.2257L40.3977 41.6666L39.7252 42.0415L39.0146 42.4631L39.7249 42.0417L39.7252 42.0415L40.3977 41.6666L41.1416 41.2257L41.8168 40.8495L40.3984 41.6662L40.3981 41.6664L40.3977 41.6666L39.7252 42.0415L39.0146 42.4631L37.665 43.2403L36.348 43.9986L35.6825 44.3699L34.9494 44.6308L34.1557 44.7726L33.309 44.7869L32.417 44.665L11.1478 40.1703L10.1161 39.8803L9.12985 39.4615L8.1997 38.9249L7.33634 38.2822L6.55024 37.5455L5.85155 36.7273L5.25015 35.8402L4.7555 34.8974L4.37664 33.9119L4.12213 32.8968L4 31.8655L4.01774 30.8308L5.82143 10.1531L5.96105 9.31339L6.21975 8.55262L7.53298 6.68231L7.99981 6.09036L8.97067 4.8661L9.96553 3.61158L10.9847 2.32642L10.5145 2.92277L10.1457 3.61302L9.89016 4.392Z" fill="url(#paint1_linear_1_715)"/>
<g filter="url(#filter0_b_1_715)">
<path fill-rule="evenodd" clip-rule="evenodd" d="M15.3906 0.879359L16.2994 1.02447L17.2351 1.28854L36.5032 7.89839L37.3196 8.23146L38.1033 8.65431L38.8483 9.15762L39.5487 9.7324L40.1983 10.3699L40.7909 11.0616L41.3198 11.7993L41.7785 12.5745L42.1599 13.3793L42.457 14.2054L42.662 15.0448L42.7672 15.8893L44.0001 36.6381L44.0001 36.6386L43.8882 37.5334L43.6678 38.3611L43.3447 39.1144L42.9245 39.7858L42.4132 40.3671L41.8168 40.8502L41.1417 41.2264L40.3946 41.4871L39.5824 41.6233L38.7128 41.6262L37.7933 41.4869L15.7517 36.4945L14.7447 36.2618L13.6853 35.8078L12.6727 35.1502L11.7663 34.4665L10.9385 33.6859L10.2002 32.8216L9.56184 31.8872L9.03358 30.8964L8.62503 29.8633L8.3453 28.8019L8.20282 27.7258L8.20559 26.6492L9.7588 5.25611L9.89017 4.39275L10.1457 3.61377L10.5145 2.92352L10.9857 2.32594L11.5487 1.82473L12.1931 1.4233L12.909 1.12493L13.6867 0.932748L14.5168 0.849854L15.3906 0.879359ZM44.0001 36.6381L42.7672 15.8893L43.9979 35.6836L44.0001 36.6381Z" fill="url(#paint2_linear_1_715)" fill-opacity="0.3"/>
<path d="M43.4982 36.6222L43.3963 37.4376L43.194 38.1974L42.9004 38.8819L42.5223 39.4861L42.0657 40.0052L41.5357 40.4344L40.9361 40.7686L40.27 41.001L39.5399 41.1235L38.7496 41.1261L37.8861 40.9953L15.8643 36.0074L15.8621 36.0069L14.9007 35.7847L13.9217 35.3651L12.9598 34.7405L12.0893 34.0839L11.3011 33.3406L10.5978 32.5173L9.99015 31.6277L9.48812 30.6862L9.10094 29.7071L8.83684 28.705L8.7029 27.6935L8.70554 26.668L10.2561 5.31191L10.3782 4.50909L10.6072 3.81099L10.9346 3.19826L11.351 2.67011L11.8492 2.22656L12.423 1.86919L13.0661 1.60116L13.772 1.42672L14.5333 1.35069L15.3425 1.37802L16.1917 1.51361L17.086 1.76598L36.3275 8.36672L37.1058 8.68425L37.844 9.08254L38.5491 9.5589L39.2144 10.1048L39.8327 10.7116L40.3971 11.3706L40.9007 12.0728L41.3365 12.8094L41.6977 13.5714L41.9775 14.3497L42.1694 15.1354L42.269 15.9351L43.4982 36.6222Z" stroke="url(#paint3_linear_1_715)"/>
</g>
<g filter="url(#filter1_d_1_715)">
<path fill-rule="evenodd" clip-rule="evenodd" d="M17.4353 17.8434L18.3013 16.9163L17.2749 18.0155L17.4353 17.8434ZM38.3274 18.603L26.6735 27.2373L26.6725 27.238L26.4673 27.3649L26.2457 27.4556L26.0108 27.5109L25.7659 27.5312L25.5144 27.5172L25.2596 27.4697L25.0047 27.3893L24.7533 27.2769L24.5088 27.1331L24.1456 27.6012L23.7824 28.0693L24.031 28.1795L24.2833 28.2578L24.5357 28.3037L24.785 28.3164L25.0278 28.2952L25.2609 28.2395L25.4811 28.1487L25.6852 28.0222L37.3022 19.4094L37.3028 19.409L38.3274 18.603ZM18.1401 17.0891L17.2749 18.0155L17.1465 18.2103L17.0507 18.4246L16.9878 18.6551L16.958 18.8987L16.9618 19.1519L16.9994 19.4114L17.0711 19.6737L17.177 19.9355L17.3175 20.1933L17.4926 20.4435L22.8917 27.3271L23.0919 27.5561L23.3094 27.7568L23.5407 27.9281L23.7824 28.0693L24.1456 27.6012L24.5088 27.1331L24.2746 26.9589L24.0542 26.7551L23.8511 26.5227L18.3706 19.542L18.1928 19.2884L18.0498 19.0273L17.9417 18.7624L17.8682 18.4971L17.8291 18.2348L17.8242 17.9791L17.8531 17.7333L17.9157 17.5009L18.0114 17.2851L18.1401 17.0891ZM18.1401 17.0891L18.3013 16.9163L17.2749 18.0155L18.1401 17.0891Z" fill="url(#paint4_linear_1_715)"/>
<path fill-rule="evenodd" clip-rule="evenodd" d="M38.2323 16.1892L38.3872 16.4109L38.5158 16.6381L38.6182 16.8679L38.6941 17.0979L38.7434 17.325L38.766 17.5467L38.7617 17.7601L38.7302 17.9624L38.6713 18.1506L38.5847 18.322L38.4702 18.4735L38.3274 18.6022L26.6733 27.2366L26.6725 27.2372L26.4673 27.3641L26.2457 27.4548L26.0108 27.51L25.766 27.5303L25.5145 27.5164L25.2596 27.4689L25.0048 27.3885L24.7534 27.276L24.5089 27.1323L24.2747 26.958L25.3523 22.6347L35.8666 15.4025L36.0355 15.3085L36.2189 15.2471L36.4138 15.217L36.6174 15.2173L36.827 15.2468L37.0398 15.3045L37.2531 15.3895L37.4641 15.5006L37.6702 15.637L37.8687 15.7978L38.057 15.9822L38.2323 16.1892ZM17.8532 17.7324L17.9157 17.5001L18.0114 17.2843L18.7127 16.6551L19.7014 16.554L19.9608 16.6115L20.2184 16.6999L20.4711 16.8183L20.7155 16.9656L20.9484 17.1409L21.1666 17.3434L21.3669 17.5722L25.3523 22.6347L24.2747 26.958L24.0543 26.7543L23.8511 26.5219L18.3706 19.5412L18.1928 19.2876L18.0499 19.0265L17.9417 18.7616L17.8682 18.4962L17.8291 18.234L17.8242 17.9783L17.8532 17.7324ZM19.7014 16.554L19.4435 16.5285L19.1906 16.5361L18.9458 16.5779L18.7127 16.6551L19.7014 16.554ZM18.7127 16.6551L18.4946 16.7688L18.3013 16.9154L18.1401 17.0883L18.0114 17.2843L18.7127 16.6551Z" fill="url(#paint5_linear_1_715)"/>
</g>
<defs>
<filter id="filter0_b_1_715" x="-4.79718" y="-12.1501" width="61.7973" height="66.7764" filterUnits="userSpaceOnUse" color-interpolation-filters="sRGB">
<feFlood flood-opacity="0" result="BackgroundImageFix"/>
<feGaussianBlur in="BackgroundImageFix" stdDeviation="6.5"/>
<feComposite in2="SourceAlpha" operator="in" result="effect1_backgroundBlur_1_715"/>
<feBlend mode="normal" in="SourceGraphic" in2="effect1_backgroundBlur_1_715" result="shape"/>
</filter>
<filter id="filter1_d_1_715" x="0.25269" y="10.5767" width="47.7941" height="39.0854" filterUnits="userSpaceOnUse" color-interpolation-filters="sRGB">
<feFlood flood-opacity="0" result="BackgroundImageFix"/>
<feColorMatrix in="SourceAlpha" type="matrix" values="0 0 0 0 0 0 0 0 0 0 0 0 0 0 0 0 0 0 127 0" result="hardAlpha"/>
<feOffset dx="-3.71229" dy="8.35266"/>
<feGaussianBlur stdDeviation="6.49651"/>
<feComposite in2="hardAlpha" operator="out"/>
<feColorMatrix type="matrix" values="0 0 0 0 0.103333 0 0 0 0 0.4104 0 0 0 0 0.43 0 0 0 0.25 0"/>
<feBlend mode="normal" in2="BackgroundImageFix" result="effect1_dropShadow_1_715"/>
<feBlend mode="normal" in="SourceGraphic" in2="effect1_dropShadow_1_715" result="shape"/>
</filter>
<linearGradient id="paint0_linear_1_715" x1="5.13771" y1="47.1042" x2="36.5624" y2="8.91455" gradientUnits="userSpaceOnUse">
<stop offset="0.320833" stop-color="#9400FF" stop-opacity="0.66"/>
<stop offset="0.58125" stop-color="#9400FF" stop-opacity="0.76"/>
<stop offset="0.89375" stop-color="#9400FF"/>
</linearGradient>
<linearGradient id="paint1_linear_1_715" x1="-5.28734" y1="8.08082" x2="38.6597" y2="51.9697" gradientUnits="userSpaceOnUse">
<stop stop-color="#1E092E" stop-opacity="0.1"/>
<stop offset="0.35896" stop-color="#9400FF" stop-opacity="0.63"/>
<stop offset="0.683604" stop-color="#9E00FF"/>
<stop offset="1" stop-color="#393009"/>
</linearGradient>
<linearGradient id="paint2_linear_1_715" x1="9.34044" y1="43.1609" x2="40.7652" y2="4.97123" gradientUnits="userSpaceOnUse">
<stop offset="0.320833" stop-color="#FE6543"/>
<stop offset="0.685417" stop-color="#FD6344"/>
<stop offset="0.89375" stop-color="#F3335A"/>
</linearGradient>
<linearGradient id="paint3_linear_1_715" x1="8.13837" y1="37.6969" x2="42.9129" y2="8.5236" gradientUnits="userSpaceOnUse">
<stop offset="0.180663" stop-color="white" stop-opacity="0.35"/>
<stop offset="0.533255" stop-color="white" stop-opacity="0"/>
</linearGradient>
<linearGradient id="paint4_linear_1_715" x1="15.9613" y1="8.52584" x2="16.2119" y2="30.9149" gradientUnits="userSpaceOnUse">
<stop offset="0.301696" stop-color="#D795FF"/>
<stop offset="0.993284" stop-color="#7FB8C0" stop-opacity="0.63"/>
</linearGradient>
<linearGradient id="paint5_linear_1_715" x1="26.6096" y1="31.3088" x2="37.8884" y2="11.2303" gradientUnits="userSpaceOnUse">
<stop stop-color="white"/>
<stop offset="0.644664" stop-color="white" stop-opacity="0.57"/>
</linearGradient>
</defs>
</svg>
